{"title":"Jean-Luc Godard's La Chinoise (1967) - BRRip x265 HEVC - FRE (EN","uid":13278577,"size":887058834,"categoryP":"video","categoryS":"hd___movies","magnet":"?xt=urn:btih:7a140be3117c078a0df11781054aefb862c69d9e&amp;dn=Jean-Luc+Godard%27s+La+Chinoise+%281967%29+-+BRRip+x265+HEVC+-+FRE+%28EN&amp;tr=udp%3A%2F%2Ftracker.leechers-paradise.org%3A6969&amp;tr=udp%3A%2F%2Fzer0day.ch%3A1337&amp;tr=udp%3A%2F%2Fopen.demonii.com%3A1337&amp;tr=udp%3A%2F%2Ftracker.coppersurfer.tk%3A6969&amp;tr=udp%3A%2F%2Fexodus.desync.com%3A6969","seeders":1,"leechers":0,"uploader":"BRSHNKV","files":1,"time":1453465286,"description":"A small group of French students are studying Mao, trying to find out their position in the world and how to change the world to a Maoistic community using terrorism.\r\n\r\nTechnical:\r\n\r\nFormat : MPEG-4\r\nFormat profile : Base Media / Version 2\r\nCodec ID : mp42\r\nFile size : 846 MiB\r\nDuration : 1h 36mn\r\nOverall bit rate mode : Variable\r\nOverall bit rate : 1 228 Kbps\r\nEncoded date : UTC 2016-01-21 03:51:15\r\nTagged date : UTC 2016-01-21 03:51:15\r\nWriting application : HandBrake 0.10.2 2015061100\r\n\r\nVideo\r\nID : 1\r\nFormat : HEVC\r\nFormat/Info : High Efficiency Video Coding\r\nFormat profile :   @Main\r\nCodec ID : hev1\r\nCodec ID/Info : High Efficiency Video Coding\r\nDuration : 1h 36mn\r\nBit rate : 1 101 Kbps\r\nWidth : 960 pixels\r\nHeight : 720 pixels\r\nDisplay aspect ratio : 4:3\r\nFrame rate mode : Constant\r\nFrame rate : 24.000 fps\r\nColor space : YUV\r\nChroma subsampling : 4:2:0\r\nBit depth : 8 bits\r\nBits/(Pixel*Frame) : 0.066\r\nStream size : 758 MiB (90%)\r\nWriting library : x265 1.5:[Mac OS X][clang 6.1.0][64 bit]\r\nEncoded date : UTC 2016-01-21 03:51:15\r\nTagged date : UTC 2016-01-21 03:51:15\r\nColor range : Limited\r\nColor primaries : BT.709\r\nTransfer characteristics : BT.709\r\nMatrix coefficients : BT.709\r\n\r\nAudio\r\nID : 2\r\nFormat : AAC\r\nFormat/Info : Advanced Audio Codec\r\nFormat profile : LC\r\nCodec ID : 40\r\nDuration : 1h 36mn\r\nBit rate mode : Variable\r\nBit rate : 121 Kbps\r\nChannel(s) : 2 channels\r\nChannel positions : Front: L R\r\nSampling rate : 48.0 KHz\r\nCompression mode : Lossy\r\nStream size : 83.6 MiB (10%)\r\nTitle : Stereo / Stereo\r\nLanguage : French\r\nEncoded date : UTC 2016-01-21 03:51:15\r\nTagged date : UTC 2016-01-21 03:51:15\r\n\r\nText #1\r\nID : 3\r\nFormat : Timed Text\r\nMuxing mode : sbtl\r\nCodec ID : tx3g\r\nDuration : 1h 36mn\r\nBit rate mode : Variable\r\nBit rate : 69 bps\r\nStream size : 48.3 KiB (0%)\r\nLanguage : English\r\nEncoded date : UTC 2016-01-21 03:51:15\r\nTagged date : UTC 2016-01-21 03:51:15\r\n\r\nText #2\r\nID : 4\r\nFormat : Timed Text\r\nMuxing mode : sbtl\r\nCodec ID : tx3g\r\nDuration : 1h 36mn\r\nBit rate mode : Variable\r\nBit rate : 91 bps\r\nStream size : 64.4 KiB (0%)\r\nLanguage : French\r\nEncoded date : UTC 2016-01-21 03:51:15\r\nTagged date : UTC 2016-01-21 03:51:15\r\n\r\nMenu\r\nID : 5\r\nCodec ID : text\r\nDuration : 1h 36mn\r\nLanguage : English\r\nEncoded date : UTC 2016-01-21 03:51:15\r\nTagged date : UTC 2016-01-21 03:51:15\r\n00:00:00.000 : Chapter 1\r\n00:10:32.875 : Chapter 2\r\n00:17:01.667 : Chapter 3\r\n00:22:50.083 : Chapter 4\r\n00:30:37.167 : Chapter 5\r\n00:41:21.708 : Chapter 6\r\n00:48:35.667 : Chapter 7\r\n00:56:32.917 : Chapter 8\r\n01:07:29.750 : Chapter 9\r\n01:19:48.208 : Chapter 10\r\n01:23:54.625 : Chapter 11\r\n01:33:42.208 : Chapter 12\r\nBit rate mode : VBR","torrent":{"xt":"urn:btih:7a140be3117c078a0df11781054aefb862c69d9e","amp;dn":"Jean-Luc+Godard%27s+La+Chinoise+%281967%29+-+BRRip+x265+HEVC+-+FRE+%28EN","amp;tr":["udp%3A%2F%2Ftracker.leechers-paradise.org%3A6969","udp%3A%2F%2Fzer0day.ch%3A1337","udp%3A%2F%2Fopen.demonii.com%3A1337","udp%3A%2F%2Ftracker.coppersurfer.tk%3A6969","udp%3A%2F%2Fexodus.desync.com%3A6969"],"infoHash":"7a140be3117c078a0df11781054aefb862c69d9e","infoHashBuffer":{"type":"Buffer","data":[122,20,11,227,17,124,7,138,13,241,23,129,5,74,239,184,98,198,157,158]},"announce":[],"urlList":[]}}